<svg xmlns="http://www.w3.org/2000/svg" viewBox="0 0 773.95 223.87" fill="none">
<style>
  :root { --stroke-0: #83828D; }
</style>
<svg x="279.80" y="11.97" width="264.46" height="204.02" viewBox="0 0 266.459 206.018" overflow="visible">
<path id="Vector 34" d="M1.05118 178.989C1.01814 179.021 0.985107 179.054 1.00713 163.702C1.02916 148.351 1.10724 117.616 1.57543 99.5163C2.04362 81.4169 2.89955 76.8849 4.15688 72.6437C6.58906 64.4395 10.7214 57.8026 15.2099 51.8458C20.2411 45.169 27.547 38.833 35.3035 32.6516C39.0814 29.6409 42.971 27.4504 50.2291 24.0129C57.4873 20.5753 68.1068 16.1015 80.6517 12.142C93.1966 8.18243 107.345 4.87283 117.583 3.03474C141.302 -1.22381 148.106 2.07415 152.27 5.00473C155.813 7.49805 156.697 12.426 158.33 25.3421C161.511 50.5008 158.67 58.0681 160.321 59.418C161.156 60.1007 162.32 60.3083 169.66 61.3814C177 62.4545 190.565 64.2664 199.321 65.6328C211.664 67.559 222.5 71.7606 235.17 77.3467C250.737 84.2095 257.73 92.5488 262.459 97.9943C265.725 101.756 265.567 106.452 265.368 110.625C265.118 115.877 256.849 120.579 246.075 125.804C242.054 127.754 235.96 129.328 224.927 131.897C213.894 134.466 197.94 137.591 188.358 139.707C171.82 143.358 167.754 146.925 164.287 149.808C161.64 153.468 159.306 161.242 157.961 174.193C157.477 182.29 157.396 193.484 157.312 205.018" stroke="var(--stroke-0, #83828D)" stroke-width="2" stroke-linecap="round"/>
</svg>
<svg x="377.12" y="77.39" width="4.86" height="6.87" viewBox="0 0 6.85985 8.86664" overflow="visible">
<path id="Vector 35" d="M2.17953 5.15221C2.17953 5.18521 2.17953 6.05645 2.42517 7.39444C2.52313 7.92807 3.16209 7.96558 3.65623 7.72371C4.79884 7.16442 5.32475 5.76513 5.65768 4.69385C5.95807 3.72727 5.91706 2.61414 5.57874 1.58667C5.41458 1.08809 4.67215 0.942319 4.09914 1.01931C3.52612 1.0963 2.99329 1.47882 2.57918 2.14149C2.16506 2.80416 1.88582 3.7354 1.00002 4.77817" stroke="var(--stroke-0, #83828D)" stroke-width="2" stroke-linecap="round"/>
</svg>
<svg x="422.95" y="64.54" width="4.76" height="4.91" viewBox="0 0 6.75718 6.91208" overflow="visible">
<path id="Vector 36" d="M1.92218 4.27159C1.92218 4.20292 2.8948 4.2475 4.52014 4.25812C5.17653 4.26241 5.47622 3.96774 5.63861 3.55051C5.801 3.13328 5.81323 2.52657 5.57073 2.04917C5.32823 1.57178 4.83063 1.24209 4.38452 1.09341C3.93841 0.94473 3.55886 0.987059 3.20578 1.12597C2.04832 2.167 1.6271 3.47424 1.4875 4.45284C1.43492 4.99028 1.4194 5.61063 1.00008 5.912" stroke="var(--stroke-0, #83828D)" stroke-width="2" stroke-linecap="round"/>
</svg>
<svg x="431.74" y="99.46" width="49.87" height="31.15" viewBox="0 0 51.8682 33.1474" overflow="visible">
<path id="Vector 37" d="M1.00715 32.1473C0.944594 31.8034 1.26206 28.0441 3.41977 19.6896C4.5592 15.2778 7.1593 11.667 9.73398 8.33034C12.485 4.76511 16.412 2.85434 21.5621 1.80495C29.9224 0.101463 36.7381 1.57512 39.3102 1.92296C43.0623 3.12067 45.9729 5.16817 49.6727 10.2961C50.3858 11.3986 50.6233 11.827 50.868 12.2685" stroke="var(--stroke-0, #83828D)" stroke-width="2" stroke-linecap="round"/>
</svg>
<svg x="594.12" y="100.34" width="112.64" height="119.53" viewBox="0 0 114.641 121.53" overflow="visible">
<path id="Vector 38" d="M30.0708 47.0144C30.0708 46.4156 30.272 38.6567 31.6203 23.3797C32.3158 15.5001 34.8545 7.57628 36.2889 3.73018C37.7234 -0.115915 38.4421 0.410455 41.4921 3.39033C49.9926 11.6954 56.539 17.824 59.0143 18.4735C60.343 18.8222 61.9443 18.5895 68.5683 17.082C75.1922 15.5745 86.8223 12.6409 94.9838 11C107.381 8.50749 112.52 9.33036 113.366 10.4751C114.231 11.6458 113.046 13.8119 109.899 18.3148C98.0356 35.2926 94.5074 40.0357 93.4632 44.1336C92.8937 46.3691 93.5538 48.4812 95.3553 52.7154C103.295 71.3755 105.509 78.18 105.381 80.7833C105.321 81.9936 104.182 82.7999 103.131 83.3319C98.4168 85.7184 90.5577 83.5445 76.591 77.9615C73.8294 76.8576 73.0187 76.7929 72.246 77.0267C71.4732 77.2606 70.7577 77.8079 64.0879 84.3523C57.4182 90.8968 44.8159 103.422 37.7395 110.279C27.7932 119.918 24.3394 120.526 22.8936 120.53C22.158 120.531 21.5051 119.814 21.1367 118.79C19.0249 112.923 22.2314 105.639 25.5247 97.5733C31.4448 83.0746 36.6522 73.8459 36.8139 72.4083C36.894 71.6956 36.7928 71.0022 36.3066 70.2376C35.1727 68.4545 32.0156 66.8574 24.4221 64.0642C18.8515 62.0151 9.50129 59.5286 4.86042 57.7062C0.219547 55.8838 0.496414 55.017 1.91674 54.0264C3.33706 53.0357 5.89245 51.9476 10.4291 50.4836C14.9657 49.0196 21.406 47.2127 28.0416 45.3511" stroke="var(--stroke-0, #83828D)" stroke-width="2" stroke-linecap="round"/>
</svg>
<svg x="43.55" y="31.74" width="162.13" height="131.32" viewBox="0 0 164.133 133.32" overflow="visible">
<path id="Vector 39" d="M54.6482 52.6408C54.5038 52.6408 54.9961 50.8942 61.2898 41.0885C66.6302 32.7681 77.8869 18.7106 83.8126 11.0514C90.2569 2.72176 92.0327 1.83217 94.1752 1.19742C95.3186 0.858705 96.6887 0.951358 97.6505 1.50683C108.22 7.61044 105.548 31.7183 107.634 33.1499C108.925 34.0364 111.343 34.0286 119.298 34.2254C127.252 34.4223 140.836 34.5123 148.559 34.6981C157.744 34.919 160.095 35.8002 161.696 36.7095C162.499 37.1661 163.013 38.0262 163.116 38.8749C163.22 39.7236 162.827 40.6404 162.137 41.5256C154.948 50.7439 136.103 58.5992 133.126 62.1745C131.888 63.6617 132.18 68.0359 133.234 78.2905C133.973 85.4788 136.444 96.5303 137.609 103.928C139.294 114.637 138.87 119.051 138.056 120.72C137.034 122.818 133.973 122.777 131.822 122.49C126.259 121.746 114.66 106.812 105.66 97.6779C103.183 95.1633 99.5876 94.4031 96.2044 93.8837C92.7584 93.3547 89.0415 94.3925 81.4857 98.9003C75.6188 102.401 66.38 109.558 58.1229 114.889C43.4163 124.385 32.0336 128.757 25.153 130.785C18.0746 132.873 14.7603 132.397 13.3208 131.859C12.5488 131.57 12.171 130.388 12.1452 128.963C12.0853 125.656 14.7027 121.104 20.8596 113.399C31.5332 100.04 40.7221 92.5087 40.6872 90.439C40.4872 78.5708 13.5101 76.8837 7.46681 72.2713C2.72307 68.6507 1.22012 63.7278 1.00594 59.0011C0.892352 56.4944 2.422 54.2058 4.02845 52.1353C7.88793 47.161 15.8165 45.6613 33.8859 45.9647C39.1564 46.5759 44.044 47.7608 47.5469 48.4285C51.0499 49.0962 53.02 49.2109 56.2396 49.9046" stroke="var(--stroke-0, #83828D)" stroke-width="2" stroke-linecap="round"/>
</svg>
<svg x="711.32" y="20.61" width="2.00" height="44.59" viewBox="0 0 2 46.5857" overflow="visible">
<path id="Vector 40" d="M1 1V45.5857" stroke="var(--stroke-0, #83828D)" stroke-width="2" stroke-linecap="round"/>
</svg>
<svg x="731.10" y="42.09" width="27.10" height="18.84" viewBox="0 0 29.1006 20.8366" overflow="visible">
<path id="Vector 41" d="M28.1006 1.00059C28.1006 0.945228 22.8397 5.30108 13.8709 12.5442C10.1629 15.403 8.16725 16.6034 6.55377 17.4805C4.94029 18.3577 3.76947 18.8753 1.00027 19.8363" stroke="var(--stroke-0, #83828D)" stroke-width="2" stroke-linecap="round"/>
</svg>
<svg x="727.16" y="81.41" width="42.79" height="2.00" viewBox="0 0 44.7852 2" overflow="visible">
<path id="Vector 42" d="M1 1H43.7852" stroke="var(--stroke-0, #83828D)" stroke-width="2" stroke-linecap="round"/>
</svg>
<svg x="4.00" y="181.10" width="36.08" height="10.17" viewBox="0 0 37.6107 12.1681" overflow="visible">
<path id="Vector 43" d="M37.0785 1C37.1089 1 35.047 1.02707 30.7179 1.29657C28.4665 1.53899 26.1044 1.99594 21.315 3.62498C16.5257 5.25403 9.38079 8.04131 1.00027 11.1678" stroke="var(--stroke-0, #83828D)" stroke-width="2" stroke-linecap="round"/>
</svg>
<svg x="41.02" y="187.00" width="2.00" height="29.92" viewBox="0 0 2.1296 31.9155" overflow="visible">
<path id="Vector 44" d="M1.06909 1.00209C1.10377 0.984518 1.13844 0.966944 1.12757 5.90238C1.11669 10.8378 1.05922 20.7268 1 30.9155" stroke="var(--stroke-0, #83828D)" stroke-width="2" stroke-linecap="round"/>
</svg>
<svg x="64.79" y="190.40" width="1.11" height="4.40" viewBox="0 0 3.10713 6.40477" overflow="visible">
<path id="Vector 45" d="M1 1C1 1.04892 1 1.09785 1.04227 1.35699C1.08455 1.61613 1.1691 2.084 1.32167 2.6333C1.47424 3.1826 1.69226 3.79915 2.10689 5.40453" stroke="var(--stroke-0, #83828D)" stroke-width="2" stroke-linecap="round"/>
</svg>
<svg x="481.80" y="26.99" width="12.78" height="19.10" viewBox="0 0 14.7752 20.6334" overflow="visible">
<path id="Vector 46" d="M1 0.533514C1 0.509813 1.04111 4.50307 1.23486 10.9808C1.33399 14.2954 2.40202 15.7965 3.38715 17.0611C5.06233 19.2116 7.36043 19.613 9.99766 19.6333C10.6494 19.6384 11.1329 19.315 11.4803 19.0325C12.3608 17.6042 12.8457 15.669 13.2046 12.102C13.3855 9.56043 13.5636 5.53386 13.7752 1.27978" stroke="var(--stroke-0, #83828D)" stroke-width="2" stroke-linecap="round"/>
</svg>
<svg x="500.77" y="24.44" width="2.00" height="19.24" viewBox="0 0 2 21.2368" overflow="visible">
<path id="Vector 47" d="M1 1V20.2368" stroke="var(--stroke-0, #83828D)" stroke-width="2" stroke-linecap="round"/>
</svg>
<svg x="501.49" y="31.01" width="16.20" height="3.80" viewBox="0 0 18.197 5.7978" overflow="visible">
<path id="Vector 48" d="M1 4.7978C1 4.77336 1.56179 4.74855 3.00125 4.63875C3.87892 4.54116 5.05545 4.35859 7.46485 3.74145C9.87425 3.12431 13.4809 2.07814 17.1968 1.00026" stroke="var(--stroke-0, #83828D)" stroke-width="2" stroke-linecap="round"/>
</svg>
<svg x="516.93" y="22.31" width="2.00" height="21.19" viewBox="0 0 2 23.1906" overflow="visible">
<path id="Vector 49" d="M1 1V22.1906" stroke="var(--stroke-0, #83828D)" stroke-width="2" stroke-linecap="round"/>
</svg>
<svg x="537.93" y="20.63" width="14.89" height="15.57" viewBox="0 0 16.8884 17.5664" overflow="visible">
<path id="Vector 50" d="M1.22444 5.20329C1.14297 7.69191 1.06718 13.1359 1.33406 13.7833C1.94765 15.2716 4.95964 15.979 8.15285 16.5238C9.19069 16.7008 10.1057 16.3013 11.021 15.8119C13.4682 14.5032 14.9444 11.2111 15.6215 9.40826C16.2297 7.78881 15.7415 5.9685 14.7026 4.23181C13.5137 2.24417 10.6864 1.55229 7.96296 1.00007C3.33399 1.0032 2.3383 1.43 1.78183 1.85452C1.50978 2.08758 1.25869 2.35644 1 2.63344" stroke="var(--stroke-0, #83828D)" stroke-width="2" stroke-linecap="round"/>
</svg>
<svg x="556.89" y="14.70" width="2.00" height="20.30" viewBox="0 0 2 22.2996" overflow="visible">
<path id="Vector 51" d="M1 1V21.2996" stroke="var(--stroke-0, #83828D)" stroke-width="2" stroke-linecap="round"/>
</svg>
<svg x="558.02" y="24.04" width="13.40" height="2.00" viewBox="0 0 15.4003 3.04028" overflow="visible">
<path id="Vector 52" d="M1 2.04028C1.03777 2.04028 2.41819 2.04028 5.74972 1.86864C7.7203 1.69699 10.2593 1.3537 11.8189 1.17685C13.3785 1 13.8817 1 14.4003 1" stroke="var(--stroke-0, #83828D)" stroke-width="2" stroke-linecap="round"/>
</svg>
<svg x="569.74" y="15.08" width="2.00" height="22.44" viewBox="0 0 2 24.4419" overflow="visible">
<path id="Vector 53" d="M1 1V23.4419" stroke="var(--stroke-0, #83828D)" stroke-width="2" stroke-linecap="round"/>
</svg>
<svg x="584.67" y="4.00" width="2.00" height="17.29" viewBox="0 0 2 19.2876" overflow="visible">
<path id="Vector 54" d="M1 1V18.2876" stroke="var(--stroke-0, #83828D)" stroke-width="2" stroke-linecap="round"/>
</svg>
<svg x="585.21" y="38.60" width="2.00" height="1.63" viewBox="0 0 2.12719 2.84152" overflow="visible">
<path id="Vector 55" d="M1 0.214493C1 0.202272 1 0.190051 1 0.528901C1 0.867751 1 1.55804 1.03981 1.77181C1.07962 1.98558 1.15924 1.70191 1.11334 1.00004" stroke="var(--stroke-0, #83828D)" stroke-width="2" stroke-linecap="round"/>
</svg>
</svg>