<svg width="100%" height="100%" overflow="visible" style="display: block;" viewBox="0 0 634.221 498.637" fill="none" xmlns="http://www.w3.org/2000/svg">
<g id=" ">
<path id="Vector 106" d="M207.144 106.274C206.916 94.2162 208.419 64.5209 214.995 53.0564C225.373 34.9661 243.809 26.4331 266.773 15.7956C278.084 10.5562 292.123 10.4115 306.975 11.2613C322.122 12.1279 334.256 20.4604 346.319 30.3035C380.583 58.2616 384.648 77.7843 386.64 80.0867C397.014 92.0773 408.894 83.8809 422.997 85.5091C438.624 87.3134 445.936 101.311 455.048 117.759C460.946 128.404 458.123 146.411 455.164 156.069C452.975 163.212 447.943 167.753 445.034 171.112C440.687 176.132 437.796 181.527 410.884 193.584C381.435 204.004 359.21 209.94 348.646 211.584C344.583 212.187 343.154 212.322 340.98 212.22" stroke="var(--stroke-0, #83828D)" stroke-width="2" stroke-linecap="round"/>
<path id="Vector 107" d="M273.636 95.2679C273.687 95.1642 282.019 95.0588 294.824 95.1451C299.788 95.1785 300.807 96.1511 301.468 96.7333C301.097 97.6808 294.196 102.615 284.105 109.565C280.454 112.163 279.786 112.873 278.725 113.692" stroke="var(--stroke-0, #83828D)" stroke-width="2" stroke-linecap="round"/>
<path id="Vector 108" d="M359.961 71.4478C357.719 72.3319 348.648 77.678 343.301 82.6208C342.442 83.414 342.047 84.1166 341.606 84.6918C340.779 85.7791 346.991 87.7874 357.292 89.9986C360.984 90.7291 361.558 90.6647 362.148 90.5983" stroke="var(--stroke-0, #83828D)" stroke-width="2" stroke-linecap="round"/>
<path id="Vector 109" d="M339.636 147.629C339.723 146.05 340.835 139.341 345.401 131.062C348.944 124.639 353.839 120.973 356.268 119.022C358.575 117.169 364.691 114.961 372.385 112.368C380.634 109.587 389.725 112.003 393.283 114.086C394.524 115.158 396.378 116.947 398.852 119.774C401.326 122.601 404.365 126.413 406.974 130.038" stroke="var(--stroke-0, #83828D)" stroke-width="2" stroke-linecap="round"/>
<path id="Vector 110" d="M242.732 107.949C242.633 107.949 242.534 107.949 229.896 107.991C217.258 108.032 192.085 108.115 177.252 108.576C158.655 109.155 150.936 112.542 142.767 116.726C133.68 121.379 124.784 128.847 113.935 138.925C107.489 144.913 100.045 153.627 93.6541 161.71C87.2629 169.794 82.3836 177.227 76.8056 188.878C71.2275 200.529 65.0987 216.174 60.7046 232.142C56.3106 248.111 53.8369 263.93 52.6081 290.317C51.3793 316.704 51.4701 353.18 51.7367 372.96C52.0033 392.74 52.4428 394.719 54.0914 398.696" stroke="var(--stroke-0, #83828D)" stroke-width="2" stroke-linecap="round"/>
<path id="Vector 111" d="M245.771 121.145C241.075 121.487 226.962 123.244 202.365 137.177C188.207 145.196 177.868 157.785 168.619 170.071C164.073 176.111 160.692 182.385 156.42 193.094C152.149 203.803 147.311 218.917 143.435 252.295C139.558 285.673 136.79 336.856 136.44 370.593C136.09 404.33 138.243 419.069 141.278 435.251" stroke="var(--stroke-0, #83828D)" stroke-width="2" stroke-linecap="round"/>
<path id="Vector 112" d="M52.18 412.781C45.4466 412.781 28.0418 413.277 20.1508 416.496C11.5068 420.023 4.66018 435.213 1.26628 443.557C-1.26731 449.786 14.9677 448.923 21.0556 449.727C27.0935 450.525 16.3782 462.438 15.9985 469.72C15.8311 472.931 17.7488 475.584 20.2513 477.606C22.8102 479.675 26.5201 479.983 30.2362 480.018C37.9696 480.09 45.264 470.339 52.1874 463.207C60.3324 454.816 66.3822 476.831 72.7839 479.861C75.8016 481.29 79.1019 480.831 81.8363 479.923C88.1066 477.841 89.0967 468.964 91.2693 465.402C93.8367 461.191 100.349 469.623 106.606 471.471C114.184 473.709 122.862 467.816 129.859 465.276C135.468 463.24 140.44 474.274 148.122 479.367C155.7 484.389 164.318 483.347 170.209 481.771C173.618 477.745 174.545 474.087 174.446 471.67C174.238 470.39 173.71 469.001 173.166 467.57" stroke="var(--stroke-0, #83828D)" stroke-width="2" stroke-linecap="round"/>
<path id="Vector 113" d="M108.802 208.814C108.758 208.77 108.714 208.727 105.816 219.77C102.918 230.814 97.1658 252.947 93.7869 274.44C90.408 295.934 89.5763 316.117 88.7193 336.911" stroke="var(--stroke-0, #83828D)" stroke-width="2" stroke-linecap="round"/>
<path id="Vector 114" d="M118.369 297.824V404.492" stroke="var(--stroke-0, #83828D)" stroke-width="2" stroke-linecap="round"/>
<path id="Vector 115" d="M178.211 126.262C174.52 126.565 163.707 128.527 153.644 132.819C147.97 135.24 141.091 145.135 130.178 167.257C125.438 180.495 122.63 190.72 121.778 196.198C121.477 198.413 121.441 199.484 121.404 200.587" stroke="var(--stroke-0, #83828D)" stroke-width="2" stroke-linecap="round"/>
<path id="Vector 116" d="M147.881 95.0625C147.79 95.0625 135.764 95.0872 117.073 95.4596C110.354 95.5935 109.282 96.477 108.389 97.2102C106.707 98.5906 105.879 100.154 105.775 101.484C105.72 102.191 106.468 102.912 107.336 103.374C113.395 106.596 123.273 103.514 136.037 97.7211C138.916 96.4661 140.071 96.1651 141.318 95.8936C142.564 95.6222 143.867 95.3896 145.209 95.15" stroke="var(--stroke-0, #83828D)" stroke-width="2" stroke-linecap="round"/>
<path id="Vector 117" d="M187.812 176.711C187.757 176.711 186.823 180.977 185.39 190.482C183.7 201.692 185.14 208.545 186.332 209.126C186.946 209.426 187.824 208.939 188.573 208.307C192.092 205.34 192.99 198.409 193.458 189.653C193.096 186.697 192.222 184.434 190.846 182.066C190.068 180.823 189.131 179.493 187.652 177.121" stroke="var(--stroke-0, #83828D)" stroke-width="2" stroke-linecap="round"/>
<path id="Vector 118" d="M404.048 76.3107C408.841 69.5847 420.443 54.1067 427.095 48.8295C429.863 46.6335 441.974 45.1791 460.731 43.4119C482.875 41.3256 490.727 45.7313 499.286 50.257C506.645 54.1479 516.916 64.8003 531.742 82.1826C540.327 92.2488 549.212 106.358 556.814 119.442C564.416 132.527 569.992 144.547 575.826 163.368C581.66 182.189 587.583 207.448 591.805 253.64C596.027 299.831 598.368 366.19 600.779 434.56" stroke="var(--stroke-0, #83828D)" stroke-width="2" stroke-linecap="round"/>
<path id="Vector 119" d="M470.701 182.27C470.701 182.191 473.205 191.192 477.384 207.5C479.058 214.766 479.825 219.983 480.169 260.442C480.512 300.902 480.408 376.445 480.443 455.409" stroke="var(--stroke-0, #83828D)" stroke-width="2" stroke-linecap="round"/>
<path id="Vector 120" d="M483.222 452.52C481.782 452.767 477.08 454.705 474.328 457.998C473.092 459.476 473.293 464.016 474.098 469.241C474.651 472.832 480.585 472.191 484.636 472.001C493.829 471.571 503.979 463.857 509.615 459.485C510.548 458.761 511.254 457.659 512.603 458.785C521.791 466.46 526.295 477.344 533.418 483.724C536.298 486.304 539.576 487.414 542.172 488.322C544.319 489.073 546.966 488.433 549.618 486.893C554.812 483.877 553.428 475.455 556.592 472.565C563.599 466.166 577.482 480.528 588.1 483.305C596.401 485.475 601.272 484.911 602.997 484.079C606.735 482.275 605.409 476.38 605.859 473.779C606.642 469.245 617.777 471.374 625.51 469.035C628.785 468.044 630.961 466.181 632.49 464.513C633.286 463.644 633.499 462.247 632.791 461.027C630.286 458.683 624.817 456.789 618.843 455.492C616.487 454.93 615.501 454.564 614.486 454.187" stroke="var(--stroke-0, #83828D)" stroke-width="2" stroke-linecap="round"/>
<path id="Vector 121" d="M501.633 119.998C508.66 119.847 524.158 120.195 526.874 121.338C532.375 123.655 534.761 132.378 542 160.093C543.688 169.111 544.7 178.539 545.221 184.384C545.743 190.229 545.743 192.206 545.743 194.243" stroke="var(--stroke-0, #83828D)" stroke-width="2" stroke-linecap="round"/>
<path id="Vector 122" d="M501.923 182.367C501.923 182.19 504.682 187.585 509.423 198.009C511.405 202.946 512.525 207.169 513.962 232.763C515.398 258.357 517.117 305.194 518.888 353.45" stroke="var(--stroke-0, #83828D)" stroke-width="2" stroke-linecap="round"/>
<path id="Vector 123" d="M549.635 300.676V420.016" stroke="var(--stroke-0, #83828D)" stroke-width="2" stroke-linecap="round"/>
<path id="Vector 124" d="M451.136 195.736C451.136 195.751 451.136 195.766 451.144 201.283C451.153 206.801 451.169 217.821 451.392 223.712C451.616 229.604 452.047 230.034 452.661 230.37C453.987 231.094 455.825 231.212 457.604 231.179C459.123 231.151 460.08 230.428 460.654 229.784C461.88 228.406 462.761 225.604 463.279 222.208C463.927 217.949 462.725 212.152 461.566 207.126C460.628 203.904 459.043 200.735 456.763 197.042C455.646 195.347 454.609 194.016 453.54 192.645" stroke="var(--stroke-0, #83828D)" stroke-width="2" stroke-linecap="round"/>
<path id="Vector 125" d="M428.644 32.0353C428.658 28.4813 428.945 19.7651 430.935 15.2375C433.328 9.79165 438.165 6.53469 441.943 3.87171C445.235 1.55174 450.155 1.15826 456.973 1.00207C459.916 0.934638 461.743 2.50965 464.027 4.39257C465.012 5.20543 465.349 6.32361 465.378 7.42494C465.392 7.99372 465.056 8.56469 461.987 11.6184C458.919 14.6721 453.038 20.1867 449.03 23.6934C440.306 30.2602 437.106 31.4403 433.808 32.2466C432.204 32.5969 430.741 32.8279 429.233 33.066" stroke="var(--stroke-0, #83828D)" stroke-width="2" stroke-linecap="round"/>
<path id="Vector 126" d="M264.966 253.309C264.943 253.309 264.919 253.309 270.717 253.304C276.514 253.3 288.133 253.292 295.888 253.001C303.642 252.711 307.179 252.14 313.418 250.449C328.596 246.337 338.168 242.994 339.694 242.849C341.937 242.635 343.98 243.051 345.315 243.772C346.791 244.569 347.909 246.975 350.586 254.254C352.733 260.092 355.494 270.625 357.101 276.382C359.803 286.059 358.423 293.491 356.122 297.493C354.366 300.549 351.226 302.849 346.647 305.915C338.569 311.322 331.533 314.476 326.318 316.004C322.607 317.091 316.551 318.122 310.776 319.026C305 319.93 299.643 320.5 296.529 320.881C293.415 321.263 292.707 321.439 290.443 321.706" stroke="var(--stroke-0, #83828D)" stroke-width="2" stroke-linecap="round"/>
<path id="Vector 127" d="M408.168 211.52C408.168 211.478 409.807 214.606 415.613 230.775C420.234 243.64 426.429 266.585 429.911 279.669C434.072 295.301 433.343 299.037 432.559 300.686C431.699 302.493 429.409 304.062 425.483 306.607C418.94 310.849 411.447 313.518 404.679 315.401C396.266 317.742 388.155 318.012 383.165 317.996C380.768 317.989 379.462 317.367 377.997 316.406C376.542 315.451 375.785 314.052 374.944 312.061C373.384 308.369 372.394 302.964 371.614 292.338C371.049 284.627 371.035 272.155 371.101 264.761C371.186 255.407 372.239 252.703 372.992 251.331C373.441 250.663 374.023 250.052 376.913 247.939C379.802 245.827 384.981 242.231 390.518 238.467" stroke="var(--stroke-0, #83828D)" stroke-width="2" stroke-linecap="round"/>
<path id="Vector 128" d="M412.646 328.27C412.675 328.27 412.704 328.27 413.083 347.689C413.463 367.109 414.193 405.948 415.207 430.36C416.222 454.771 417.499 463.578 418.02 468.456C418.54 473.335 418.265 474.018 417.773 474.576C415.524 477.127 411.744 477.511 402.259 478.166C393.954 478.739 378.51 478.893 370.049 478.984C355.993 479.137 348.454 474.994 347.323 474.063C346.176 473.119 345.526 469.926 344.867 459.022C344.349 450.459 344.681 435.692 344.97 425.574C345.259 415.456 345.807 410.421 346.129 404.155C346.827 390.558 346.281 382.273 345.432 380.984C343.225 377.635 336.266 376.869 330.089 376.835C325.453 376.81 324.255 385.459 322.002 395.201C320.491 401.731 319.277 411.702 318.52 422.612C317.762 433.521 317.764 445.123 317.814 453.801C317.895 467.881 317.677 474.189 316.511 475.539C315.063 477.214 310.861 477.486 297.837 478.495C287.329 479.31 268.844 479.767 258.916 480.064C248.165 480.386 243.991 479.093 236.604 477.273C227.972 475.146 222.262 474.951 220.986 474.04C219.692 473.117 219.242 469.575 219.278 450.572C219.309 434.103 220.492 403.79 221.174 387.531C221.856 371.272 222.29 369.99 222.831 368.834C223.371 367.679 224.004 366.688 224.657 365.668" stroke="var(--stroke-0, #83828D)" stroke-width="2" stroke-linecap="round"/>
<path id="Vector 129" d="M216.251 140.965C216.222 140.965 216.193 140.965 216.119 155.779C216.045 170.593 215.926 200.222 213.386 227.381C210.847 254.539 205.891 278.331 200.243 298.006C194.595 317.681 188.406 332.52 183.463 343.134C178.519 353.749 175.008 359.69 169.86 367.037C158.031 382.957 150.065 392.678 147.581 394.411C146.181 395.256 144.5 396.03 142.768 396.828" stroke="var(--stroke-0, #83828D)" stroke-width="2" stroke-linecap="round"/>
<path id="Vector 130" d="M148.698 418.569C148.723 418.569 148.747 418.569 157.35 418.505C165.954 418.441 183.135 418.313 192.94 418.096C202.745 417.879 204.653 417.577 208.238 416.254" stroke="var(--stroke-0, #83828D)" stroke-width="2" stroke-linecap="round"/>
<path id="Vector 131" d="M150.848 366.811C150.848 366.842 150.848 366.872 150.848 363.613C150.848 360.353 150.848 353.803 151.033 350.389C151.219 346.974 151.59 346.894 153.673 346.895C159.541 346.897 164.994 347.277 167.391 347.245C168.266 347.234 168.311 346.303 167.573 342.143C166.835 337.984 165.278 330.387 164.595 326.263C163.913 322.139 164.152 321.718 167.359 319.98C170.566 318.241 176.733 315.198 180.382 313.325C187.512 309.664 190.517 305.598 191.751 303.568C192.559 302.239 188.68 297.4 183.892 291.197C181.378 287.941 181.066 286.499 181.016 283.983C180.993 282.803 181.907 281.672 184.992 278.187C187.617 275.34 192.392 270.303 194.998 267.583C197.603 264.863 197.894 264.613 198.78 264.262" stroke="var(--stroke-0, #83828D)" stroke-width="2" stroke-linecap="round"/>
<path id="Vector 132" d="M198.786 263.844C198.786 263.871 195.296 259.934 189.913 253.804C188.007 251.634 187.826 251.333 187.739 251.005C187.652 250.678 187.676 250.322 190.452 248.533C193.228 246.744 198.756 243.533 202.742 240.974C209.168 236.848 211.453 234.404 211.499 233.561C211.566 232.349 208.628 228.995 204.669 224.348C200.768 219.77 200.546 216.981 200.583 214.532C202.856 210.515 207.382 205.047 208.948 203.547C209.564 202.971 209.82 202.771 210.634 202.301" stroke="var(--stroke-0, #83828D)" stroke-width="2" stroke-linecap="round"/>
<path id="Vector 133" d="M207.747 196.426C207.801 196.066 206.97 189.61 204.386 181.574C202.492 175.682 199.715 172.471 199.604 171.787C199.476 171.001 203.332 166.577 208.954 160.393C211.177 157.949 211.302 157.152 211.329 156.361C211.315 155.626 211.183 154.74 210.263 152.39C209.457 150.565 207.959 147.457 206.417 144.254" stroke="var(--stroke-0, #83828D)" stroke-width="2" stroke-linecap="round"/>
<path id="Vector 134" d="M258.794 13.9101C258.819 13.9356 258.845 13.961 251.39 13.9868C243.935 14.0127 228.999 14.0381 221.555 14.6693C214.11 15.3004 214.609 16.5365 216.358 19.1857C218.106 21.8348 221.089 25.8595 222.566 28.2333C224.044 30.6071 223.926 31.2081 220.01 32.6922C208.563 37.0307 198.198 40.0623 194.041 42.2832C190.456 44.1979 188.592 46.1108 188.195 47.4062C186.924 51.5551 197.137 55.8041 199.644 59.2065C204.788 66.1884 189.169 80.1617 187.926 83.7742C187.426 85.2264 187.495 87.1299 187.719 89.2022C188.474 90.8953 191.643 92.8892 196.032 95.01C197.776 95.9026 198.541 96.4225 199.485 97.293" stroke="var(--stroke-0, #83828D)" stroke-width="2" stroke-linecap="round"/>
</g>
</svg>
