<svg fill-rule="evenodd" clip-rule="evenodd" stroke-linejoin="round" stroke-miterlimit="1.414" xmlns="http://www.w3.org/2000/svg" aria-label="photos" viewBox="0 0 32 32" preserveAspectRatio="xMidYMid meet" fill="currentColor" width="256" height="256"><path d="M4.50571 15.8684C4.50164 15.4346 4.5 14.9791 4.5 14.5C4.5 11.784 4.563 9.827 4.824 8.319C5.069 6.877 5.443 6.194 5.843 5.798C6.246 5.401 6.936 5.037 8.377 4.802C8.87979 4.71865 9.432 4.65726 10.0447 4.61247C10.3185 4.54976 10.602 4.4952 10.8951 4.44752C12.6171 4.16737 14.7954 4.10641 17.5 4.10641C20.2046 4.10641 22.3829 4.16737 24.1049 4.44752C24.3229 4.48299 24.5357 4.52227 24.7431 4.56589C23.1396 2.76932 20.1209 2.5 14.5 2.5C3.669 2.5 2.5 3.5 2.5 14.5C2.5 20.7898 2.82695 23.81 5.16341 25.2433C5.02994 24.787 4.92479 24.2995 4.84098 23.7819C4.56094 22.0522 4.5 19.8528 4.5 17.1064C4.5 16.6807 4.50172 16.2681 4.50571 15.8684Z"/><path d="M27.198 23.696C27.446 22.185 27.5 20.221 27.5 17.5C27.5 14.784 27.437 12.827 27.176 11.319C26.931 9.877 26.557 9.194 26.157 8.798C25.754 8.401 25.064 8.037 23.623 7.802C22.121 7.553 20.178 7.5 17.5 7.5C14.822 7.5 12.879 7.553 11.377 7.802C9.936 8.037 9.246 8.401 8.843 8.798C8.443 9.194 8.069 9.877 7.824 11.319C7.563 12.827 7.5 14.784 7.5 17.5C7.5 20.221 7.553 22.185 7.802 23.696C8.037 25.146 8.402 25.823 8.789 26.211C9.177 26.598 9.854 26.963 11.304 27.198C12.815 27.447 14.779 27.5 17.5 27.5C20.221 27.5 22.185 27.447 23.696 27.198C25.146 26.963 25.823 26.598 26.211 26.211C26.598 25.823 26.963 25.146 27.198 23.696V23.696ZM17.5 29.5C28.5 29.5 29.5 28.5 29.5 17.5C29.5 6.5 28.331 5.5 17.5 5.5C6.669 5.5 5.5 6.5 5.5 17.5C5.5 28.5 6.5 29.5 17.5 29.5Z"/><path d="M10.056 22.174C9.35001 22.071 8.67101 22.633 8.77601 23.338C8.83601 23.744 9.15501 24.058 9.56001 24.122C11.518 24.43 14.099 24.5 17.5 24.5C20.9 24.5 23.482 24.43 25.439 24.122C25.845 24.058 26.163 23.744 26.224 23.338C26.329 22.633 25.65 22.071 24.944 22.174C24.906 22.18 24.867 22.185 24.828 22.191C24.827 22.191 24.826 22.191 24.826 22.191C23.024 22.444 20.683 22.5 17.5 22.5C14.317 22.5 11.976 22.444 10.174 22.191C10.174 22.191 10.173 22.191 10.172 22.191C10.133 22.185 10.094 22.18 10.056 22.174Z"/><path d="M13.222 11.534C12.414 11.348 11.61 11.853 11.424 12.66C11.379 12.855 11.375 13.05 11.405 13.236C11.455 13.543 11.349 13.9 11.082 14.061C10.975 14.126 10.87 14.194 10.766 14.265C10.301 14.584 9.65999 14.466 9.50999 13.922C9.36099 13.382 9.34099 12.797 9.47499 12.212C9.90799 10.328 11.786 9.15199 13.669 9.58499C15.553 10.017 16.73 11.895 16.297 13.779C16.242 14.02 16.163 14.25 16.063 14.466C15.795 15.046 15.056 14.945 14.632 14.467C14.58 14.407 14.525 14.349 14.468 14.293C14.26 14.086 14.218 13.747 14.31 13.468C14.325 13.424 14.337 13.378 14.348 13.332C14.533 12.524 14.029 11.719 13.222 11.534ZM14.722 19.276C15.129 19.617 15.735 19.562 16.074 19.152C16.325 18.856 16.575 18.552 16.826 18.247H16.827C17.915 16.927 19.035 15.57 20.378 14.542C21.802 15.632 22.941 17.026 24.072 18.41L24.073 18.411C24.276 18.659 24.478 18.906 24.682 19.152C25.021 19.562 25.627 19.617 26.034 19.276C26.437 18.938 26.491 18.319 26.156 17.915C25.94 17.655 25.724 17.391 25.505 17.124L25.498 17.115C24.259 15.601 22.965 14.02 21.39 12.894C21.091 12.683 20.753 12.5 20.378 12.5C20.003 12.5 19.665 12.683 19.366 12.894C17.785 14.024 16.457 15.648 15.203 17.181C15 17.429 14.798 17.675 14.599 17.916C14.259 18.326 14.314 18.934 14.722 19.276V19.276ZM14.301 16.67C14.576 16.358 14.572 15.892 14.277 15.598C14.046 15.368 13.794 15.134 13.514 14.894C13.215 14.683 12.877 14.5 12.502 14.5C12.127 14.5 11.774 14.671 11.49 14.894C10.049 16.029 9.49999 16.978 8.72299 17.916C8.38299 18.326 8.43799 18.934 8.84599 19.276C9.25299 19.617 9.85899 19.562 10.198 19.152C11 18 11.49 17.5 12.502 16.542C12.591 16.626 12.675 16.707 12.756 16.784C13.176 17.185 13.917 17.105 14.301 16.67V16.67Z"/></svg>