<svg fill-rule="evenodd" clip-rule="evenodd" stroke-linejoin="round" stroke-miterlimit="1.414" xmlns="http://www.w3.org/2000/svg" aria-label="captions" viewBox="0 0 32 32" preserveAspectRatio="xMidYMid meet" fill="currentColor" width="256" height="256"><path d="M15.0477 21.9892L14.5601 21.982L14.1239 22.2L14.1219 22.201L14.0104 22.2567L13.9066 22.3259L11 24.2636V23.418C11 22.7598 10.6873 22.3119 10.5172 22.1134C10.3276 21.8923 10.1078 21.7329 9.89068 21.6243L9.69749 21.5276L9.48812 21.4745C8.09894 21.1218 7.70432 20.6616 7.47712 20.1738C7.13629 19.4421 7 18.251 7 16C7 14.3783 7.06525 13.2781 7.25859 12.477C7.43394 11.7504 7.68268 11.4021 8.0095 11.1529C8.40359 10.8523 9.1297 10.533 10.5602 10.3126C11.9772 10.0944 13.8902 10 16.5 10C19.1098 10 21.0228 10.0944 22.4398 10.3126C23.8703 10.533 24.5964 10.8523 24.9905 11.1529C25.3173 11.4021 25.5661 11.7504 25.7414 12.477C25.9347 13.2781 26 14.3783 26 16C26 17.6217 25.9347 18.7219 25.7414 19.523C25.5661 20.2496 25.3173 20.5979 24.9905 20.8471C24.5964 21.1477 23.8703 21.467 22.4398 21.6874C21.0228 21.9056 19.1098 22 16.5 22C15.9934 22 15.5103 21.9961 15.0477 21.9892ZM16.5 24C15.983 24 15.49 23.996 15.018 23.989L15.016 23.99L10.555 26.964C9.89 27.407 9 26.93 9 26.131V23.418C9 23.416 8.998 23.414 8.996 23.413C5.439 22.51 5 20.401 5 16C5 9.5 5.958 8 16.5 8C27.042 8 28 9.5 28 16C28 22.5 27.042 24 16.5 24ZM9 13.5C8.448 13.5 8 13.948 8 14.5C8 15.052 8.448 15.5 9 15.5H23C23.552 15.5 24 15.052 24 14.5C24 13.948 23.552 13.5 23 13.5H9ZM8.92308 16.5C8.41354 16.5 8 16.948 8 17.5C8 18.052 8.41354 18.5 8.92308 18.5H17.0769C17.5865 18.5 18 18.052 18 17.5C18 16.948 17.5865 16.5 17.0769 16.5H8.92308ZM19 17.5C19 16.948 19.4135 16.5 19.9231 16.5H23.0769C23.5865 16.5 24 16.948 24 17.5C24 18.052 23.5865 18.5 23.0769 18.5H19.9231C19.4135 18.5 19 18.052 19 17.5Z"/></svg>